<svg width="37" height="60" viewBox="0 0 37 60" fill="none" xmlns="http://www.w3.org/2000/svg">
<path d="M3.65001 11.22C3.74001 9.53999 3.8 8.33999 3.86 7.13999C4.03 7.11999 4.19 7.10999 4.36 7.08999C3.99 6.54999 3.62 6.00999 3.25 5.46999C3.3 5.26999 3.35 5.05999 3.39 4.85999C5.83 5.19999 8.33 5.03999 11.09 6.53999C10.85 5.43999 10.59 4.68999 10.55 3.92999C10.5 3.05999 10.33 1.69 10.77 1.41C11.82 0.749996 13.24 0.229992 14.41 0.389992C15.16 0.489992 15.96 1.8 16.32 2.74C16.59 3.44 16.4 4.49 16.05 5.21C14.85 7.67 16.48 9.01999 18.11 9.97999C20.15 11.19 20.36 12.96 20.67 14.95C20.82 15.92 21.34 17.1 22.09 17.67C26.3 20.85 30.56 24.03 36.33 23.89C36.33 24.11 36.34 24.33 36.34 24.55C35.73 24.84 35.15 25.22 34.5 25.41C33.55 25.68 32.51 25.66 31.62 26.04C30.37 26.57 29.44 26.9 28.78 25.24C28.58 24.74 27.68 24.46 27.05 24.22C25.02 23.46 22.97 22.77 20.53 21.92C18.93 22.2 18.26 23.88 18.44 25.56C18.88 29.75 17.25 33.45 16.15 37.29C15.8 38.5 15.66 39.77 15.45 41.02C14.9 44.4 14.25 47.77 13.87 51.17C13.73 52.45 13.82 54.05 14.47 55.08C15.98 57.44 16.11 57.44 12.79 58.97C12.33 57.1 11.65 55.35 11.52 53.55C11.39 51.78 11.83 49.96 12.02 48.14C10.14 47.88 9.27001 48.69 8.80001 50.14C8.09001 52.35 8.03001 54.55 8.83001 56.76C9.18001 57.73 9.92 59.02 8.25 59.26C6.96 59.45 5.38001 59.08 5.41001 57.24C5.43001 55.5 5.57001 53.71 5.97001 52.02C6.61001 49.34 8.21 46.76 6.17 43.98C5.94 43.66 6.11 42.78 6.4 42.4C7.52 40.94 7.09 39.51 6.61 38.01C5.63 34.87 4.58001 31.74 3.80001 28.55C3.37001 26.82 3.62 24.92 3.2 23.18C2.95 22.14 1.99 21.28 1.35 20.33C1.12 19.99 0.640005 19.54 0.720005 19.3C1.74001 16.49 5.48363e-06 12.58 3.65001 11.22Z" fill="black"/>
</svg>
