<svg width="29" height="59" viewBox="0 0 29 59" fill="none" xmlns="http://www.w3.org/2000/svg">
<path d="M14.36 12.34C15.73 10.3 17.06 8.32 18.4 6.34C18.6 6.4 18.8 6.44999 19 6.50999C18.74 6.04999 18.53 5.56 18.22 5.13C17.31 3.87 18.05 2.96 18.7 1.89C19.57 0.449999 20.92 -0.0100048 22.24 0.479995C23.24 0.849995 24.29 1.89 24.66 2.88C24.95 3.67 24.39 4.89 23.96 5.81C23.33 7.16 23.92 7.84 24.93 8.63C27.81 10.88 28.29 13.02 27.37 16.64C27.04 17.96 27.11 19.58 27.57 20.86C29.27 25.55 28.61 29.98 26.66 34.39C25.37 37.33 24.9 40.4 24.84 43.64C24.79 46.11 23.87 48.56 23.42 51.04C23.14 52.57 23.13 54.15 22.79 55.66C22.59 56.57 22.08 57.46 21.5 58.19C21.35 58.38 19.97 58.04 19.88 57.74C19.59 56.69 19.41 55.52 19.56 54.46C20.11 50.6 20.83 46.76 21.42 42.91C21.54 42.16 21.2 41.32 21.39 40.59C22.49 36.3 20 34.65 16.49 33.53C14.97 33.05 13.56 32.19 12.13 31.44C10.48 30.57 9.74999 30.95 9.75999 32.77C9.78999 36.08 9.61 39.41 9.88 42.7C10.19 46.39 10.8 50.07 11.48 53.71C11.85 55.68 10.44 56.71 9.63 58.05C9.5 58.27 8.42 58.14 7.98 57.85C7.75 57.7 7.71 56.66 7.97 56.4C9.96 54.37 9.14001 52.4 8.24001 50.2C7.44001 48.22 7.14001 46.03 6.60001 43.93C6.13001 42.1 5.76 40.24 5.16 38.45C3.6 33.75 1.98 29.1 3.27 24.01C3.38 23.59 2.83 22.66 2.41 22.53C0.650004 21.97 0.310006 20.82 0.740006 19.24C1.20001 17.54 1.58 15.81 2.23 14.18C2.97 12.33 4.17 10.94 6.5 11.07C8.14 11.16 8.75 10.37 8.19 8.67999C7.84 7.62999 7.5 6.41 7.73 5.39C7.99 4.23 8.65 2.78999 9.59 2.25999C10.27 1.86999 11.98 2.44999 12.69 3.14999C13.7 4.14999 14.22 5.58999 13.38 7.17999C12.91 8.06999 12.71 9.14 12.56 10.16C12.37 11.57 13.09 12.29 14.36 12.34ZM14.85 17.39C14.25 18.81 13.55 19.78 13.49 20.79C13.44 21.74 13.83 22.95 14.48 23.61C14.82 23.96 16.5 23.68 16.87 23.17C17.29 22.58 17.15 21.36 16.87 20.55C16.53 19.6 15.78 18.8 14.85 17.39Z" fill="black"/>
</svg>
