<svg width="48" height="64" viewBox="0 0 48 64" fill="none" xmlns="http://www.w3.org/2000/svg">
<path d="M29.56 60.43C31 59.77 31.94 59.18 32.95 58.9C36.09 58.05 36.51 57.3 34.61 54.82C32.61 52.19 30.51 49.6 28.19 47.26C26.8 45.86 26.05 44.38 25.78 42.5C25.52 40.66 25.15 38.84 24.73 36.51C24.04 38.39 23.59 39.84 22.99 41.21C21.01 45.69 18.99 50.16 16.96 54.62C15.8 57.18 16.24 58.13 19 58.9C19.83 59.13 20.64 59.44 21.89 59.86C20.98 60.44 20.51 60.74 19.49 61.4C20.27 61.69 20.87 61.91 21.46 62.13C18.18 63.93 15.36 63.03 12.62 62.02C12.25 61.88 12.06 60.66 12.16 59.99C12.47 57.78 12.82 55.56 13.4 53.41C14.09 50.86 14.97 48.36 15.9 45.89C17.55 41.53 17.83 37.26 15.91 32.87C15.06 30.92 14.88 28.7 14.14 26.69C12.78 23 11.23 19.39 9.75001 15.7C8.95001 15.93 8.29001 16.11 7.50001 16.34C7.60001 16.82 7.93001 17.45 7.75001 17.69C7.26001 18.34 6.55 18.82 5.92 19.37C5.58 18.88 5.20001 18.41 4.89001 17.9C4.34001 16.99 3.98001 15.9 3.26001 15.17C0.890009 12.77 0.15001 11.2 1.30001 9.35001C2.55001 7.35001 3.97001 5.32001 6.53001 4.82001C7.02001 4.72001 7.70001 5.22001 8.19001 5.58001C10.83 7.52001 13.17 10.34 16.12 11.26C19.99 12.47 22.11 14.41 22.94 18.2C23.15 19.16 23.74 20.03 24.2 21.03C25.51 18.5 26.54 16.12 27.92 13.97C28.96 12.35 30.22 10.69 31.78 9.62001C34.59 7.70001 36.47 5.28001 37.45 2.07001C37.78 0.99001 41.06 0.0900097 41.92 0.96001C43.29 2.35001 44.51 2.03001 45.81 1.08001C47.28 2.18001 48.12 4.88001 47.56 6.65001C46.66 9.54001 44.57 10.94 41.39 10.99C40.25 13.08 39.14 14.99 38.14 16.97C36.26 20.71 34.84 24.58 35.01 28.88C35.04 29.58 35.07 30.31 34.9 30.98C34.1 34.09 33.2 37.18 32.38 40.29C31.74 42.71 32.4 44.67 33.92 46.75C35.98 49.56 37.5 52.77 39.24 55.82C39.97 57.1 40.68 58.4 41.36 59.72C42.07 61.1 41.86 62.28 40.23 62.69C38.47 63.13 36.67 63.54 34.87 63.63C33.51 63.69 31.56 64.19 31.52 61.65C31.53 61.34 30.68 61.08 29.56 60.43Z" fill="black"/>
</svg>
