<svg width="30" height="64" viewBox="0 0 30 64" fill="none" xmlns="http://www.w3.org/2000/svg">
<path d="M18.14 37.96C17.99 38.59 17.77 39.22 17.71 39.86C17.23 45.66 17.07 51.52 16.13 57.25C15.85 58.95 13.41 60.31 11.9 61.75C11.79 61.86 11 61.46 10.74 61.13C10.6 60.95 10.78 60.23 11.03 60.07C14.55 57.66 14.15 54.08 14.06 50.52C14 48.2 14.22 45.87 14.27 43.55C14.28 42.9 14.15 42.24 13.77 41.63C13.12 44.28 12.6 46.97 11.78 49.57C10.96 52.15 10.15 54.64 11.13 57.38C11.29 57.83 10.58 58.6 10.27 59.22C9.87 58.67 9.3 58.18 9.1 57.56C8.69 56.34 8.46001 55.06 8.19001 53.8C8.12001 53.48 8.14 53.12 8.2 52.79C8.52 51.04 8.96001 49.32 9.18001 47.56C9.81001 42.55 10.36 37.53 10.94 32.52C10.98 32.18 11.02 31.84 10.66 31.33C10.32 32.08 9.95001 32.81 9.66001 33.58C7.69001 38.74 5.47001 43.84 3.93001 49.13C3.45001 50.76 3.17001 52.57 2.64001 54.27C2.56001 54.53 2.69 54.94 2.53 55.09C1.9 55.72 1.19001 56.27 0.510008 56.85C0.440008 56.02 0.180005 55.16 0.320005 54.38C0.950005 50.94 1.52 47.48 2.45 44.12C3.81 39.23 4.60001 34.3 4.97001 29.22C5.19001 26.17 6.72 23.32 9.17 21.19C9.38 21.01 9.56 20.79 9.71 20.56C9.77 20.47 9.70001 20.29 9.68001 20.16C9.64001 20.1 9.62001 20 9.57001 19.98C5.49001 18.77 5.41001 18.51 7.65001 14.83C8.16001 13.99 8.61 13.11 9.06 12.23C10.08 10.27 11.31 8.81999 13.89 9.58999C14.38 9.73999 15.48 9.32 15.58 8.96C15.78 8.26 15.78 7.02 15.34 6.69C13.06 4.99 15.26 3.61999 15.68 2.27999C15.9 1.55999 17.58 0.559989 18.09 0.789989C19.22 1.31999 20.21 2.41999 20.9 3.50999C21.64 4.67999 21.7 5.96999 20.29 7.02999C19.69 7.47999 19.5 8.46 18.99 9.47C20.31 9.77 21.42 10.02 22.63 10.29C22.78 9.10999 22.77 7.99 23.08 6.97C23.61 5.24 24.85 4.51 26.69 4.97C28.54 5.43 28.91 6.95999 28.74 8.41999C28.6 9.66999 27.83 10.86 27.29 12.06C26.85 13.03 26.35 13.96 25.77 15.12C26.8 15.35 27.38 15.48 28.1 15.64C27.66 16.14 27.31 16.54 26.79 17.14C27.29 17.58 27.83 17.9 28.15 18.37C28.59 19.01 29.34 20 29.13 20.42C27.91 22.83 26.45 25.12 25.08 27.46C24.71 28.1 24.03 28.81 24.09 29.42C24.56 34.01 23.41 38.38 22.46 42.79C22.34 43.33 22.22 43.95 22.35 44.47C23.25 48.07 22.11 51.43 21.34 54.86C20.91 56.82 21.01 58.89 20.77 60.89C20.69 61.57 20.47 62.47 19.99 62.8C19.47 63.15 18.57 62.95 17.84 62.99C17.83 62.26 17.63 61.47 17.83 60.8C19.45 55.39 19.49 49.86 19.14 44.3C19.06 42.97 19.11 41.62 19.04 40.29C19 39.52 18.83 38.76 18.71 38C18.54 37.96 18.34 37.96 18.14 37.96Z" fill="black"/>
</svg>
