<svg width="22" height="62" viewBox="0 0 22 62" fill="none" xmlns="http://www.w3.org/2000/svg">
<path d="M10.08 4.44C10.55 2.51 11.35 1.05 13.6 0.830001C15.78 0.620001 17.32 2.27 16.79 4.42C16.56 5.35 16.2 6.33 16.31 7.24C16.39 7.9 17 8.78 17.61 9.05C21.83 10.92 22.11 11.49 20.75 15.94C20.27 17.49 19.52 18.89 21.32 20.43C23.09 21.95 20.8 22.09 19.82 22.75C20.13 24.24 20.36 25.76 20.75 27.23C21.6 30.41 20.06 32.75 16.84 33.29C16.33 33.38 15.6 34.2 15.56 34.73C15.4 36.83 15.43 38.95 15.46 41.06C15.5 44.35 15.54 47.65 15.67 50.94C15.79 53.96 16.04 56.97 16.18 59.98C16.21 60.49 16.17 61.28 15.87 61.47C15.53 61.68 14.83 61.42 14.33 61.25C13.95 61.12 13.6 60.83 13.28 60.55C12.57 59.93 11.89 59.28 11.19 58.64C11.91 58.07 12.64 57.5 13.22 57.04C12.51 51.69 11.81 46.34 11.1 40.98C10.87 40.97 10.63 40.96 10.4 40.94C10.21 42.4 10.08 43.88 9.83001 45.33C9.34001 48.22 8.96001 51.14 8.21001 53.96C7.76001 55.65 7.57001 57.07 8.71001 58.53C9.04001 58.95 9.28001 59.8 9.07001 60.18C8.85001 60.59 7.97 60.95 7.51 60.83C7.08 60.72 6.62 59.99 6.51 59.46C5.62 55.26 6.25001 51.02 6.30001 46.8C6.32001 45.29 6.89 43.65 4.76 42.98C4.45 42.88 4.05 42.11 4.15 41.8C4.63 40.27 5.17 38.74 5.89 37.32C6.38 36.35 6.37 35.9 5.23 35.75C1.06 35.21 0.37 30.75 1.26 27.65C1.5 26.82 1.33001 25.85 1.24001 24.96C1.02001 22.67 0.549999 20.38 0.539999 18.09C0.529999 16.35 1.65 15.11 3.43 14.6C5.08 14.12 6.2 13.62 4.92 11.42C4.14 10.08 2.75 8.37 4.01 6.55C4.52 5.82 5.33 5.07 6.15 4.83C7.39 4.48 8.75001 4.56 10.08 4.44ZM10.17 5.60001C9.88 5.71001 9.58 5.82 9.29 5.94C9.7 6.94 10.06 7.96999 10.56 8.92999C10.62 9.04999 11.35 8.81 12.03 8.7C11.3 7.48 10.73 6.54001 10.17 5.60001Z" fill="black"/>
</svg>
