<svg width="30" height="63" viewBox="0 0 30 63" fill="none" xmlns="http://www.w3.org/2000/svg">
<path d="M29.93 2.59C28.21 3.93 27.79 5.01 28.3 6.85C28.6 7.95 28.6 9.94 26.61 10.84C25.9 11.16 25.73 12.76 25.38 13.79C25.31 14 25.53 14.32 25.65 14.58C28.19 19.93 25.31 24.7 24.02 29.63C23.99 29.75 23.85 29.85 23.76 29.96C23.08 30.88 21.88 31.81 21.88 32.74C21.87 33.6 23.24 34.41 23.84 35.34C25.36 37.7 26.8 40.12 28.27 42.51C29.11 43.87 28.93 45.11 28.05 46.44C25.8 49.84 23.64 53.3 21.29 56.99C22.12 57.42 22.81 57.8 23.52 58.15C24.34 58.55 25.28 58.79 25.95 59.36C26.39 59.74 26.73 60.66 26.58 61.18C26.44 61.64 25.54 62.2 25.01 62.17C22.78 62.03 20.53 61.83 18.35 61.34C17.74 61.2 16.92 59.92 16.99 59.25C17.13 57.9 17.75 56.58 18.28 55.29C19.75 51.66 21.3 48.06 22.76 44.43C22.91 44.07 22.83 43.36 22.58 43.14C20.19 41.02 17.74 38.97 14.88 36.54C14.88 38.54 14.88 40.15 14.88 41.76C14.6 41.82 14.32 41.89 14.04 41.95C13.32 40.12 12.61 38.3 11.75 36.1C11.07 37.01 10.55 37.64 10.1 38.31C8.83 40.16 7.53 42.01 6.34 43.92C6.02 44.43 5.76 45.44 6.02 45.76C7.99 48.1 7.84 51.04 8.51 53.74C8.95 55.5 9.52 57.24 9.76 59.03C9.86 59.81 9.38 61.32 8.97 61.4C6.85 61.79 4.67 61.87 2.5 61.92C2.06 61.93 1.24 61.37 1.24 61.08C1.24 60.56 1.61 59.84 2.05 59.54C3.03 58.89 4.23 58.57 5.16 57.87C5.56 57.57 5.81 56.5 5.59 56.03C4.18 52.97 2.57 49.99 1.14 46.94C0.740002 46.09 0.350001 44.97 0.580001 44.15C1.57 40.64 2.82 37.21 3.91 33.73C4.13 33.05 4.44 32 4.12 31.6C1.84 28.81 2.57 25.21 1.37 22.19C0.0200011 18.81 1.05 16.62 3.94 14.81C4.66 14.36 5.19 13.42 5.49 12.59C5.65 12.15 5.26 11.06 4.91 10.95C2.97 10.37 2.29 8.30001 2.54 7.25001C3.05 5.09001 2.36 1.77 6.04 1.39C6.59 1.33 7.26 1.16 7.7 1.38C8.91 2.01 9.97 2.45001 11.1 1.23001C11.24 1.08001 12.13 1.3 12.28 1.56C12.5 1.97 12.58 2.71001 12.35 3.05001C12.03 3.52001 11.36 3.76 10.73 4.17C11.81 5.89 11.35 7.14001 9.66 8.37001C9.2 8.71001 9.5 10.46 9.84 11.44C10.26 12.65 11.38 13.65 11.65 14.86C12.46 18.56 13.01 22.31 13.67 26.04C13.72 26.35 13.8 26.65 14.35 27.04C15.54 23.95 17.07 20.94 17.82 17.75C18.44 15.14 19.49 13 21.38 11.23C22.5 10.18 22.37 9.15001 21.59 8.05001C19.83 5.56001 19.74 3.59 21.33 2.02C23.04 0.340002 26.6 0.100004 28.56 1.53C28.93 1.84 29.32 2.13 29.93 2.59Z" fill="black"/>
</svg>
