<svg width="29" height="59" viewBox="0 0 29 59" fill="none" xmlns="http://www.w3.org/2000/svg">
<path d="M14.05 12.44C15.53 10.29 16.92 8.27 18.51 5.97C17.5 4.85 17.16 3.43 18.71 1.64C20.01 0.129997 21.41 0.0700004 22.76 0.8C23.99 1.46 25.05 2.46 24.09 4.39C23.26 6.07 23.19 7.78 25.29 9.25C27.68 10.92 28.14 13.5 27.27 16.45C26.85 17.87 26.99 19.68 27.49 21.1C29.03 25.51 28.46 29.71 26.7 33.83C25.26 37.2 24.62 40.62 24.66 44.3C24.68 46.42 23.88 48.56 23.33 50.66C22.88 52.38 21.81 53.9 22.54 55.93C22.74 56.5 21.56 58.16 20.77 58.36C19.36 58.73 19.41 57.3 19.54 56.34C19.73 54.95 20.27 53.59 20.36 52.2C20.71 47.16 20.93 42.1 21.21 37.05C21.29 35.67 20.7 35.38 19.33 34.99C16.88 34.29 14.64 32.85 12.28 31.79C11.57 31.47 10.74 31.41 9.97 31.22C9.85 31.94 9.62 32.65 9.62 33.37C9.6 36.4 9.46 39.44 9.72 42.45C10.03 46.13 10.55 49.82 11.25 53.45C11.64 55.49 10.32 56.63 9.49 58.04C9.36 58.26 8.2 58.19 7.86 57.87C7.58 57.61 7.56 56.55 7.84 56.28C9.7 54.49 9 52.74 8.23 50.71C7.32 48.31 6.88 45.73 6.25 43.22C5.88 41.72 5.68 40.17 5.17 38.73C3.49 33.98 2.02 29.25 3.13 24.09C3.23 23.61 2.48 22.64 1.91 22.37C0.639999 21.78 0.209999 21.02 0.589999 19.7C1.07 18.01 1.4 16.27 2.01 14.63C2.75 12.63 3.94 11.03 6.44 11.08C8 11.11 8.53 10.52 8 8.83C7.57 7.46 7.4 5.85999 7.69 4.47999C7.89 3.54999 9.04 2.23 9.84 2.17C10.84 2.09 12.24 2.89 12.91 3.74C13.84 4.92 13.66 6.40999 12.88 7.86999C11.72 10.07 12.15 11.37 14.05 12.44ZM14.61 17.33C13.99 18.86 13.32 19.85 13.25 20.88C13.19 21.77 13.59 22.98 14.23 23.54C14.66 23.91 16.18 23.67 16.64 23.18C17.08 22.72 17.01 21.47 16.74 20.72C16.36 19.69 15.58 18.83 14.61 17.33Z" fill="black"/>
</svg>
