<svg width="44" height="60" viewBox="0 0 44 60" fill="none" xmlns="http://www.w3.org/2000/svg">
<path d="M1.00001 19.14C1.46001 18.05 1.92001 16.97 2.37001 15.88C3.65001 12.76 5.51001 10.07 8.05001 7.83C8.62001 7.32 9.17001 6.73 9.56001 6.08C12.35 1.46 19.47 -1.03 24.53 0.880004C28.93 2.54 30.95 6.90999 29.49 11.79C29.22 12.69 28.9 13.37 30.15 13.74C32.68 14.48 33.03 16.69 33.5 18.84C33.64 19.45 33.92 20.11 34.34 20.56C35.91 22.27 37.9 23.7 39.09 25.63C40.18 27.4 40.62 29.63 41.05 31.73C41.78 35.29 42.85 38.99 41.38 42.52C40.5 44.65 39.17 46.08 42.52 47.29C43.99 47.82 44.17 50.03 42.68 51.25C41.02 52.62 39.22 54.01 37.23 54.75C32.5 56.52 27.66 58.01 22.81 59.41C19.3 60.42 16.12 58.99 13.89 56.12C12.96 54.92 11.61 54.05 10.58 53.14C8.81001 54.28 7.48001 55.15 5.79001 56.24C5.41001 55.57 4.67001 54.85 4.77001 54.28C4.89001 53.63 5.66001 52.9 6.32001 52.58C8.83001 51.36 10.11 49.39 10.32 46.67C10.35 46.25 10.3 45.8 10.44 45.41C11.26 43.07 10.57 41.79 7.61001 41.9C7.41001 42.78 7.28001 43.88 6.90001 44.87C6.68001 45.44 6.05001 45.86 5.61001 46.34C5.17001 45.93 4.59001 45.6 4.33001 45.09C3.83001 44.14 3.51001 43.1 3.07001 41.96C3.57001 41.58 4.21001 41.25 4.63001 40.74C4.98001 40.32 5.41001 39.49 5.23001 39.17C3.74001 36.54 5.19001 34.28 5.97001 31.92C6.18001 31.29 6.31001 30.64 6.47001 29.99C5.83001 29.91 5.18001 29.88 4.55001 29.75C3.36001 29.49 2.17001 29.17 0.990005 28.88C1.00001 25.63 1.00001 22.38 1.00001 19.14ZM34.76 34.44C34.5 34.38 34.25 34.31 33.99 34.25C33.33 35.47 32.68 36.68 31.84 38.23C33.48 38.23 34.48 38.23 35.76 38.23C35.38 36.79 35.07 35.61 34.76 34.44Z" fill="black"/>
</svg>
