<svg width="29" height="64" viewBox="0 0 29 64" fill="none" xmlns="http://www.w3.org/2000/svg">
<path d="M19.48 7.67001C19.9 7.70001 20.19 7.78001 20.45 7.73001C25.11 6.81001 24.63 8.62001 24.95 11.67C25.13 13.39 25.09 15.18 24.82 16.89C24.26 20.44 26.17 23.29 27.29 26.35C28.13 28.64 28.45 30.82 27.53 33.12C26.33 36.12 25.2 39.16 23.95 42.14C23.22 43.9 23.03 45.55 23.56 47.46C23.94 48.8 23.72 50.38 23.49 51.81C23.07 54.39 22.29 56.95 24.41 59.19C24.5 59.29 24.59 59.44 24.59 59.56C24.6 62.21 21.89 61.21 20.7 62.37C20 63.06 19.01 62.39 18.78 61.23C17.87 56.63 16.95 52.03 15.99 47.44C15.76 46.36 15.35 45.31 14.88 43.77C14.38 44.49 14.05 44.85 13.85 45.27C12.43 48.32 10.99 51.36 9.66002 54.45C9.03002 55.91 8.78003 57.54 8.10003 58.97C7.42003 60.39 6.45001 61.67 5.52001 62.95C5.37001 63.15 4.76003 63.08 4.38003 63.05C3.66003 62.98 2.94002 62.86 2.22002 62.73C1.77002 62.64 1.06001 62.6 0.960012 62.34C0.800012 61.93 0.860014 61.12 1.15001 60.89C4.02001 58.62 4.05003 55.52 4.10003 52.26C4.14003 50.12 4.94004 48 5.14004 45.85C5.49004 42.15 5.63003 38.43 5.85003 34.72C6.03003 31.79 6.20002 28.86 6.34002 25.93C6.36002 25.47 6.19003 24.98 6.01003 24.54C5.58003 23.5 5.08002 22.49 4.62002 21.45C2.70002 17.12 3.13001 15.27 6.77001 12.27C7.20001 11.91 7.68002 11.59 8.06002 11.18C8.79002 10.39 8.94002 9.69001 7.87002 8.92001C5.93002 7.53001 5.39003 4.88001 6.54003 3.03001C7.62003 1.28001 9.61001 1.05001 12.11 2.00001C12.79 2.26001 14.05 1.84001 14.65 1.30001C15.97 0.120012 16.99 0.630012 18.27 1.30001C19.65 2.03001 19.59 3.10001 19.49 4.35001C19.41 5.42001 19.48 6.52001 19.48 7.67001Z" fill="black"/>
</svg>
