<svg width="28" height="63" viewBox="0 0 28 63" fill="none" xmlns="http://www.w3.org/2000/svg">
<path d="M16.42 59.53C18.02 58.88 19.12 58.39 20.25 57.98C22.42 57.2 22.73 56.66 21.42 54.81C19.67 52.35 17.94 49.78 15.74 47.75C13.82 45.97 13 44.12 13.12 41.65C13.14 41.2 13.01 40.75 12.9 39.94C12.5 40.43 12.27 40.6 12.2 40.81C10.68 45.93 7.34001 50.12 4.98001 54.81C3.95001 56.87 3.96 57.24 6.09 58.09C6.98 58.45 7.93 58.66 9.2 59.49C8.74 59.74 8.28 60 7.78 60.27C8.11 60.65 8.42001 61.01 8.76001 61.39C8.61001 61.61 8.54 61.85 8.39 61.94C6.97 62.77 1.66 62.08 0.600003 60.84C0.300003 60.49 0.220001 59.78 0.340001 59.3C1.1 56.16 1.85 53.02 2.78 49.93C3.22 48.48 4.11001 47.17 4.66001 45.74C5.44001 43.71 6.08001 41.62 6.90001 39.24C3.66001 39.88 3.55001 39.65 3.69001 37.1C3.79001 35.37 3.66001 33.54 3.16001 31.9C1.38001 26.02 1.46 20.07 2.25 14.1C2.39 13.03 3.26001 11.99 3.98001 11.08C5.26001 9.46001 7.10001 8.22 6.12001 5.59C5.90001 5.01 7.04001 3.93001 7.44001 3.27001C7.75001 2.44001 7.82001 1.52 8.30001 1.17C9.31001 0.430005 9.75 1.21001 10.31 2.13001C11.18 3.57001 13.27 3.69001 14.65 2.63001C17.29 0.590012 19.07 0.73 21.18 3.15C21.36 3.35 21.6 3.64001 21.57 3.86001C21.28 6.46001 23.31 7.56 24.87 8.9C27.84 11.46 28.11 13.99 26.44 17.39C24.85 20.64 23.35 24.1 22.77 27.62C22.38 30.03 22.92 32.56 21.3 34.76C21.09 35.04 21.39 35.7 21.48 36.18C21.78 37.69 21.86 38.93 20.15 39.93C18.42 40.93 18.52 44.08 19.75 46.06C22.41 50.35 24.96 54.71 27.49 59.07C28.19 60.27 27.94 61.24 26.37 61.56C24.99 61.85 23.64 62.39 22.26 62.5C20.64 62.62 18.64 63.18 18.16 60.58C18.09 60.29 17.41 60.12 16.42 59.53ZM13.48 24.71C13.7 24.7 13.92 24.69 14.14 24.69C16.19 20.45 18.24 16.2 20.29 11.98C19.74 11.73 19.13 11.42 18.48 11.16C17.84 10.9 16.99 10.87 16.57 10.42C15.52 9.29 13.81 9.02001 12.64 9.99001C11.23 11.17 9.79 12.34 8.13 13.71C8.87 14.35 9.96001 15.1 10.8 16.07C11.53 16.91 12.25 17.92 12.53 18.97C13.02 20.84 13.18 22.79 13.48 24.71Z" fill="black"/>
</svg>
