<svg width="20" height="65" viewBox="0 0 20 65" fill="none" xmlns="http://www.w3.org/2000/svg">
<path d="M9.69001 53.23C9.50001 56.07 9.34001 58.92 9.10001 61.75C9.06001 62.28 8.78 63.16 8.47 63.22C6.55 63.62 4.60001 63.9 2.64001 64.06C2.14001 64.1 1.59001 63.57 1.06001 63.3C1.43001 62.86 1.77001 62.37 2.20001 61.99C2.45001 61.77 2.85001 61.74 3.18001 61.61C5.91001 60.51 6.24001 59.75 6.20001 56.84C6.13001 51.08 4.09001 45.84 2.23001 40.53C1.78001 39.24 1.84001 37.77 1.65001 36.38C1.47001 35.07 1.25001 33.76 1.11001 32.45C1.00001 31.41 0.950006 30.36 0.960006 29.32C0.980006 27.23 0.950005 25.12 1.16001 23.05C1.25001 22.11 1.72001 21.11 2.29001 20.34C3.32001 18.94 4.76001 17.81 5.60001 16.32C6.03001 15.57 5.85001 13.61 5.36001 13.36C3.35001 12.35 3.88001 10.67 4.49001 9.61C5.53001 7.81 6.62001 5.69 9.27001 5.73C9.81001 1.79 11.51 0.35 15.45 0.74C16.23 0.82 17.52 1.56 17.56 2.09C17.75 4.3 17.57 6.54 17.5 8.77C17.49 8.96 17.37 9.23 17.22 9.31C14.42 10.7 15.68 12.61 16.56 14.45C18.77 19.05 18.22 23.87 17.99 28.73C17.89 30.75 18.41 32.9 19.09 34.83C19.69 36.51 19.66 37.49 17.88 38.14C17.5 38.28 17.05 38.71 16.95 39.09C15.44 44.72 13.66 50.29 13.83 56.25C13.92 59.33 14.5 60.18 17.32 61.29C18.29 61.67 19.03 62.63 19.87 63.33C18.81 63.73 17.76 64.13 16.69 64.5C16.51 64.56 16.27 64.48 16.06 64.45C11.02 63.73 11.06 63.73 11.04 58.56C11.03 56.77 10.77 54.98 10.62 53.19C10.33 53.19 10.01 53.21 9.69001 53.23ZM9.71 49.84C10.02 49.83 10.32 49.82 10.63 49.8C10.63 45.49 10.63 41.17 10.63 36.86C10.41 36.85 10.19 36.84 9.97001 36.83C7.99001 41.08 9.13 45.47 9.71 49.84Z" fill="black"/>
</svg>
