<svg width="38" height="60" viewBox="0 0 38 60" fill="none" xmlns="http://www.w3.org/2000/svg">
<path d="M17.82 9.30001C17.14 7.26001 16.28 5.54001 16.08 3.73001C15.96 2.71001 16.63 1.03001 17.44 0.610008C18.48 0.060008 20.14 0.170008 21.31 0.600008C21.97 0.840008 22.42 2.26001 22.56 3.20001C22.7 4.17001 22.34 5.20001 22.2 6.23001C23.47 5.93001 24.51 5.68001 25.72 5.39001C25.36 7.97001 24.62 10.14 26.9 11.77C27.36 12.1 27.57 13.03 27.59 13.69C27.66 16.15 27.7 18.62 27.54 21.08C27.5 21.61 26.58 22.48 26.05 22.5C24.66 22.54 24.49 23.16 24.75 24.25C25.55 27.73 26.37 31.21 27.17 34.69C27.81 37.5 28.22 40.38 29.13 43.09C30.39 46.8 31.97 50.41 33.55 54C33.86 54.7 34.8 55.14 35.48 55.64C36.1 56.1 36.78 56.48 37.94 57.21C36.25 58.13 35.14 58.87 33.93 59.3C33.56 59.43 32.62 58.83 32.4 58.35C31.66 56.78 31.25 55.05 30.51 53.49C28.42 49.12 26.22 44.8 24.05 40.46C23.94 40.24 23.76 40.05 23.51 39.69C23.15 42.29 22.89 44.68 22.48 47.04C22.26 48.28 21.69 49.46 21.48 50.7C21.3 51.78 21.41 52.9 21.37 54.01C21.35 54.69 21.36 55.93 21.25 55.95C19.85 56.11 18.43 56.13 17.03 56.03C16.94 56.02 16.91 54.72 16.91 54.02C16.9 52.67 17.06 51.31 16.93 49.97C16.72 47.81 16.27 45.68 16.04 43.52C15.84 41.55 15.8 39.57 15.69 37.59C15.47 37.57 15.24 37.54 15.02 37.52C14.74 37.95 14.43 38.37 14.18 38.82C11.36 43.83 8.51 48.83 5.75 53.88C5.23 54.84 4.87 55.94 4.69 57.01C4.45 58.48 3.82 58.65 2.69 57.92C2.4 57.73 2.12001 57.51 1.85001 57.29C1.31001 56.84 0.769996 56.37 0.229996 55.9C0.819996 55.48 1.45001 55.1 1.99001 54.62C2.63001 54.05 3.39001 53.48 3.74001 52.74C5.30001 49.52 6.8 46.27 8.19 42.97C8.98 41.11 9.54999 39.15 10.18 37.22C11.01 34.68 11.82 32.14 12.6 29.59C13.29 27.34 13.97 25.08 14.55 22.8C14.63 22.5 14.06 21.7 13.75 21.69C12.03 21.58 11.85 20.35 11.89 19.14C11.96 17.03 12.19 14.93 12.4 12.83C12.56 11.13 13.48 10.16 15.22 9.93001C16.02 9.81001 16.83 9.54001 17.82 9.30001Z" fill="black"/>
</svg>
