<svg width="28" height="64" viewBox="0 0 28 64" fill="none" xmlns="http://www.w3.org/2000/svg">
<path d="M19 7.64001C24.1 7.71001 24.13 7.70001 24.74 12.55C24.88 13.64 24.93 14.81 24.69 15.87C23.82 19.85 25.88 23.14 27.15 26.59C27.97 28.82 28.21 30.94 27.32 33.17C26.06 36.3 24.76 39.42 23.62 42.59C23.21 43.74 22.71 45.26 23.12 46.24C24.18 48.77 23.38 51.1 22.97 53.49C22.64 55.42 22.51 57.27 23.99 58.85C24.18 59.05 24.45 59.46 24.38 59.56C23.92 60.23 23.4 61.34 22.87 61.36C21.47 61.41 20.01 64.25 18.66 61.45C18.3 60.71 18.27 59.81 18.1 58.99C17.05 54.09 16 49.19 14.85 43.8C14.23 44.55 13.87 44.85 13.69 45.23C12.19 48.39 10.67 51.55 9.28001 54.76C8.70001 56.09 8.56001 57.61 7.94001 58.91C7.27001 60.33 6.29001 61.61 5.40001 62.93C5.28001 63.11 4.79001 63.29 4.67001 63.2C3.67001 62.48 2.71001 62.44 1.46001 62.71C0.610007 62.89 -0.169996 61.81 0.840004 61.01C3.78 58.68 3.83001 55.54 3.86001 52.21C3.88001 50.14 4.69 48.09 4.88 46C5.24 42.09 5.41001 38.16 5.65001 34.24C5.81001 31.52 5.98001 28.8 6.08001 26.07C6.10001 25.48 5.95001 24.84 5.72001 24.28C5.25001 23.1 4.64001 21.98 4.15001 20.82C2.69001 17.35 3.11001 15.43 5.86001 12.96C6.28001 12.58 6.72001 12.23 7.14001 11.85C8.87001 10.31 8.85001 10.01 7.00001 8.58001C5.77001 7.63001 5.38 4.68001 6.27 3.13001C7.16 1.60001 9.65 0.63001 11.02 1.61001C12.49 2.67001 13.55 2.10001 14.54 1.21001C15.88 8.40425e-06 17.13 0.47001 18.09 1.43001C18.76 2.10001 19.15 3.25001 19.28 4.23001C19.43 5.27001 19.13 6.39001 19 7.64001Z" fill="black"/>
</svg>
