<svg width="34" height="59" viewBox="0 0 34 59" fill="none" xmlns="http://www.w3.org/2000/svg">
<path d="M17.38 40.63C17.19 43.48 16.94 46.33 16.85 49.2C16.8 50.71 17.51 51.76 19.23 51.79C19.84 51.8 20.45 51.96 21.05 52.04C21.11 52.26 21.17 52.48 21.24 52.7C20.15 53.06 19.05 53.43 17.63 53.9C18.55 54.55 19.21 55.03 20.25 55.77C18.96 56.23 18.01 56.55 17.07 56.91C15.78 57.41 14.42 57.8 13.25 58.51C11.95 59.3 11.17 59.2 10.67 57.74C10.46 57.14 10.05 56.5 10.14 55.94C10.69 52.65 8.80001 49.97 8.12001 47C7.43001 44.01 7.03001 40.93 6.72001 37.86C6.33001 34.04 5.99001 33.6 2.12001 33.12C1.45001 33.04 0.790005 32.77 0.130005 32.59C0.130005 32.37 0.130005 32.14 0.130005 31.92C0.880005 31.73 1.62 31.46 2.38 31.36C4.58 31.05 4.73001 30.86 3.87001 28.88C3.29001 27.52 2.81001 26.08 2.00001 24.87C-0.239992 21.55 0.610006 18.31 1.92001 15.01C3.72001 10.49 7.98001 8.08001 10.9 4.52001C11.1 4.28001 11.5 4.07001 11.81 4.06001C14.48 4.03001 17.38 3.39001 19.77 4.20001C23.66 5.52001 25.89 3.85001 28.21 0.990005C30.11 2.33001 30.75 4.33001 31.4 6.31001C31.59 6.90001 31.56 7.69001 31.95 8.07001C33.65 9.72001 33.37 11.42 32.39 13.27C31.86 14.27 31.39 15.3 30.98 16.34C30.01 18.77 28.62 20.32 25.62 20.06C23.47 19.87 21.67 23.96 23.03 25.8C24.69 28.03 24.94 30.13 23.41 32.57C22.74 33.64 22.54 35.06 22.31 36.36C21.63 40.16 21.15 40.63 17.38 40.63Z" fill="black"/>
</svg>
